<?xml version="1.0" encoding="UTF-8"?><svg xmlns="http://www.w3.org/2000/svg" viewBox="0 0 637.35 242.8"><g id="a"/><g id="b"><g id="c"><g><g><path d="M364.93,44.51c-.2,2.47-1.37,4.02-2.34,4.05h-.03c-.96,0-2.2-1.48-2.54-3.91l-.04-.28-2.43,.07,.04,.35c.44,3.62,2.51,6.21,4.96,6.21,.03,0,.07,0,.1,0,2.49-.07,4.46-2.8,4.7-6.48l.02-.35-2.42,.07-.02,.28Z"/><path d="M392.65,53.84c0-12.84-6.66-24.14-16.69-30.67h0c-.06-.04-.12-.07-.17-.1-.57-.37-1.15-.73-1.74-1.06-.02,0-.03,.01-.05,.02-.4-.22-.77-.48-1.18-.69-1.33,.39-2.62,.85-3.86,1.37-3.52-1.66-7.37-2.73-11.42-3.1v-5.53c1.86-.55,3.22-2.25,3.22-4.29,0-2.48-2.01-4.49-4.49-4.49s-4.49,2.01-4.49,4.49c0,2.04,1.36,3.74,3.22,4.29v5.39c-.21,0-.42-.02-.63-.02-19.02,0-34.49,15.47-34.49,34.49s15.47,34.49,34.49,34.49c5.28,0,10.29-1.2,14.77-3.34,1.11,.53,2.24,1.01,3.39,1.42,.51-.26,.99-.56,1.49-.85,.02,0,.03,.01,.05,.02,.37-.21,.72-.44,1.08-.66,.13-.08,.28-.15,.41-.23h-.02c10.27-6.49,17.12-17.92,17.12-30.94Zm-43.82,7.52c.81,0,1.58-.16,2.32-.41-1.47,1.1-3.27,1.78-5.25,1.78-3.63,0-6.76-2.21-8.1-5.36-.63-1.83-.75-3.86-.35-5.76,1.03-3.73,4.41-6.49,8.45-6.49,1.97,0,3.78,.68,5.25,1.78-.73-.24-1.5-.41-2.32-.41-4.1,0-7.43,3.33-7.43,7.43s3.33,7.43,7.43,7.43Zm5.53,24.51c-17.61,0-31.94-14.33-31.94-31.94s14.33-31.94,31.94-31.94c4.07,0,7.94,.81,11.52,2.2-1.62,.88-3.14,1.87-4.56,2.97-1.95-.45-3.97-.71-6.06-.71-15.18,0-27.48,12.3-27.48,27.48s12.3,27.48,27.48,27.48c2.3,0,4.52-.31,6.65-.85,1.39,1.1,2.86,2.1,4.38,3-3.69,1.49-7.71,2.32-11.93,2.32Zm16.36-20.66c-2.72-.46-6.52-1.93-9.94-6.89l-2.09,1.44c4.39,6.37,9.36,7.75,12.55,8.1l2.12,10.89-13.1-3.07c-3.54-3.54-6.37-7.78-8.03-12.34,3.03-2.04,5.03-5.5,5.03-9.42s-1.81-7.02-4.58-9.09c1.62-6.41,5.29-11.85,10.38-15.78l18.11,29.03-12.51-3.56,2.07,10.68Z"/><path d="M370.73,9.13l2.17,.77-.77,2.17c-.13,.37,.06,.78,.44,.91,.08,.03,.16,.04,.24,.04,.3,0,.57-.18,.68-.48l.77-2.17,2.17,.77c.08,.03,.16,.04,.24,.04,.3,0,.57-.18,.68-.48,.03-.08,.04-.16,.04-.24,0-.3-.18-.57-.48-.68l-2.17-.77,.77-2.17c.13-.37-.06-.78-.44-.91-.37-.13-.78,.06-.91,.44l-.77,2.17-2.17-.77c-.37-.13-.78,.06-.91,.44-.03,.08-.04,.16-.04,.24,0,.3,.18,.57,.48,.68Z"/><circle cx="387.06" cy="21.98" r="1.83"/><path d="M324.1,19.68l1.39,.49-.49,1.39c-.13,.37,.06,.78,.44,.91,.08,.03,.16,.04,.24,.04,.3,0,.57-.18,.68-.48l.49-1.39,1.39,.49c.08,.03,.16,.04,.24,.04,.3,0,.57-.18,.68-.48,.03-.08,.04-.16,.04-.24,0-.3-.18-.57-.48-.68l-1.39-.49,.49-1.39c.13-.37-.06-.78-.44-.91-.37-.13-.78,.06-.91,.44l-.49,1.39-1.39-.49c-.37-.13-.78,.06-.91,.44-.03,.08-.04,.16-.04,.24,0,.3,.18,.57,.48,.68Z"/><circle cx="339.06" cy="6.57" r="1.46"/></g><g><path d="M412.61,29.19h-7.17v35.18h3.29v-19.53h3.87v19.53h3.29V29.18h-3.29Zm0,12.54h-3.87v-9.42h3.87v9.42Z"/><polygon points="437.35 29.19 433.47 29.19 433.47 29.18 430.18 29.18 430.18 29.19 430.18 32.3 430.18 37.11 433.47 37.11 433.47 32.3 437.35 32.3 437.35 41.74 433.47 41.74 433.47 41.73 430.18 41.73 430.18 41.74 430.18 44.86 430.18 61.25 430.18 64.37 430.18 64.37 433.47 64.37 433.47 64.37 440.62 64.37 440.62 64.35 440.62 64.35 440.62 56.42 437.33 56.42 437.33 61.25 433.47 61.25 433.47 44.86 440.62 44.86 440.62 44.85 440.64 44.85 440.64 29.18 437.35 29.18 437.35 29.19"/><polygon points="454.91 32.3 458.2 32.3 458.2 64.37 461.5 64.37 461.5 32.3 464.77 32.3 464.77 29.18 454.91 29.18 454.91 32.3"/><path d="M489.52,41.72h-4c.78-.82,1.91-1.34,3.18-1.34h.41v-11.2h-10.04v35.19h3.29v-19.53h3.87v19.53h3.29v-20.31h0v-2.33Zm-7.16-1.21v-8.21h3.45v5.51c-1.42,.55-2.61,1.5-3.45,2.7Z"/><path d="M507.09,29.18h-3.29v35.19h10.46V29.19h-7.17Zm3.87,3.11v28.95h-3.87v-28.95h3.87Z"/><path d="M531.82,36.3v-7.12h-3.29v35.19h3.29v-22.19c1.12,.72,2.44,1.17,3.87,1.25v20.94h3.29v-24.05h-2.89c-2.35,0-4.26-1.8-4.28-4.02Z"/><path d="M560.43,29.19h-7.17v35.18h3.29v-19.53h3.87v19.53h3.29V29.18h-3.29Zm0,12.54h-3.87v-9.42h3.87v9.42Z"/><path d="M588.46,41.72h-4c.78-.82,1.91-1.34,3.18-1.34h.41v-11.2h-10.04v35.19h3.29v-19.53h3.87v19.53h3.29v-20.31h0v-2.33Zm-7.16-1.21v-8.21h3.45v5.51c-1.42,.55-2.61,1.5-3.45,2.7Z"/><polygon points="602.73 32.3 606.03 32.3 606.03 64.37 609.32 64.37 609.32 32.3 612.59 32.3 612.59 29.18 602.73 29.18 602.73 32.3"/><polygon points="637.35 32.27 637.35 29.16 630.18 29.16 630.18 29.15 626.88 29.15 626.88 64.34 630.18 64.34 630.18 64.33 637.35 64.33 637.35 61.22 630.18 61.22 630.18 44.81 632.53 44.81 632.53 41.69 630.18 41.69 630.18 32.27 637.35 32.27"/></g></g><g id="d"><polygon id="e" points="541.45 226.59 544.71 229.81 547.96 226.59 544.71 223.39 541.45 226.59"/><path id="f" d="M531.14,191.81c.42-.29,.82-.62,1.18-1,1.29-1.36,2.01-3.14,2.01-5.02l-.03-8.37v-21.32l-10.48,4.71,.57,1.27,2.05-.92v30.64h-16.31c.42-.29,.82-.62,1.18-1,1.29-1.36,2.01-3.14,2.01-5.02v-20.17l-10.48,4.71,.57,1.27,2.05-.92v21.13h-2.39v1.4h2.3v35.21h-2.31v1.4h12.65v-1.4h-2.33v-35.21h12.98v35.21h-2.31v1.4h12.65v-1.4h-2.33v-35.21h19.25v-1.4h-22.47Z"/><polygon id="g" points="478.99 160.27 485.5 166.72 492 160.27 485.5 153.87 478.99 160.27"/><polygon id="h" points="489.54 176.41 479.06 181.12 479.63 182.4 481.69 181.47 481.69 228.42 479.29 228.42 479.29 229.81 491.94 229.81 491.94 228.42 489.54 228.42 489.54 176.41"/><path id="i" d="M467.36,152.92c-.53-1.16-1.25-2.52-2.17-4.07l-9.62,8.67c3.07,3.84,5.29,8.02,6.66,12.53,.67,2.22,1.13,4.39,1.37,6.5,.77,6.38-.07,12.57-2.54,18.56l-7.3,17.77,.21-.48-4.87,11.53-1.48,3.44-.63-1.48-27.57-70.54h-15.82v1.63h6.29l2.67,6.83,29.14,73.88h10.68l-4.23-9.31,13.59-31.99,.37-.69,5.34-12.06c.11-.25,.21-.5,.32-.77,.11-.26,.22-.56,.34-.87,.12-.32,.22-.56,.29-.74,1.73-4.79,2.49-9.62,2.27-14.46-.21-4.85-1.32-9.47-3.33-13.88Z"/></g><g><g><circle cx="141.06" cy="23.59" r="3.46"/><circle cx="163.96" cy="23.59" r="3.46"/><path d="M159.05,27.16c0-.81-.66-1.46-1.46-1.46s-1.46,.66-1.46,1.46c0,2.44-1.77,3.53-3.53,3.53s-3.53-1.09-3.53-3.53c0-.81-.66-1.46-1.46-1.46s-1.46,.66-1.46,1.46c0,2.49,1.12,4.01,2.05,4.84,1.17,1.04,2.74,1.62,4.4,1.62,3.21,0,6.45-2.22,6.45-6.45Z"/><path d="M208.28,56.97h0c-.78-7.36-4.53-14.67-10.87-21.14-5.54-5.66-12.8-10.28-19.92-12.66-.03-.01-.07-.02-.1-.03-.33-.76-.68-1.49-1.03-2.18-2.62-5.09-6.02-8.66-9.83-10.35-.64-.29-1.31-.52-1.98-.7,.85-2.33,2.52-4.39,4.6-5.62,.53-.31,.9-.81,1.05-1.4,.15-.59,.06-1.21-.25-1.74-.31-.53-.81-.9-1.4-1.05-.59-.15-1.21-.06-1.73,.25-3.42,2.02-5.93,5.35-6.96,9.2-.21,.02-.42,.05-.62,.08-2.2,.33-4.46,1.2-6.72,2.6-2.29-1.43-4.57-2.33-6.79-2.66-.2-.03-.4-.06-.61-.08-1.04-3.83-3.54-7.14-6.94-9.16-1.09-.64-2.49-.28-3.14,.8-.64,1.09-.28,2.49,.8,3.14,2.06,1.22,3.73,3.26,4.58,5.57-.69,.18-1.36,.42-2.02,.72-3.9,1.75-7.35,5.53-9.99,10.94-.25,.5-.49,1.04-.74,1.61-.06,.01-.12,.03-.18,.05-7.12,2.39-14.38,7-19.92,12.66-6.33,6.47-10.09,13.78-10.87,21.14-.47,4.41,.51,8.63,2.75,11.88,2.41,3.49,6.06,5.7,10.56,6.39,.98,.15,1.99,.23,2.99,.23,3.13,0,6.31-.73,9.7-2.23,3.35-1.48,6.47-3.54,9.14-5.43,2.28,2.38,5.02,4.13,8.16,5.21,.05,.02,.09,.03,.14,.04,.05,.02,.1,.04,.15,.05,2.21,.72,4.64,1.12,7.22,1.19,.06,0,.13,0,.21,0l4.14,8.66,1.1,.35,4.29-8.98c.29,0,.54-.01,.72-.02h.1s.07,0,.1,0c2.41-.1,4.68-.5,6.75-1.19,.03,0,.06-.02,.08-.03,.02,0,.04-.01,.05-.02,3.13-1.06,5.86-2.8,8.12-5.18,2.64,1.87,5.74,3.91,9.07,5.38,3.39,1.5,6.57,2.23,9.7,2.23,1,0,2-.08,2.99-.23,4.5-.69,8.16-2.9,10.56-6.39,2.24-3.25,3.21-7.46,2.75-11.88Zm-79.4-20.7c.46-4.34,1.83-9.05,3.76-12.94,2.17-4.35,4.81-7.32,7.66-8.6h0c3.23-1.45,6.9-.75,10.89,2.11,.79,.57,1.86,.57,2.66,0,3.93-2.8,7.58-3.48,10.83-2.04,3.59,1.59,6.12,5.37,7.61,8.26,1.88,3.66,3.25,8.1,3.73,12.2,.2,1.68,.34,3.36,.4,5.01-7.62-3.1-15.66-4.67-23.91-4.67h-.01c-8.25,0-16.29,1.57-23.91,4.66,.06-1.67,.18-3.05,.28-3.99Zm-15.84,34.59c-.77,0-1.55-.06-2.3-.17-6.39-.98-10.18-6.31-9.45-13.26,1.33-12.58,13.02-23.69,24.41-28.67-.66,2.37-1.13,4.77-1.37,7.03-.6,5.66-.79,14.02,1.7,21.74,.79,2.45,1.81,4.67,3.03,6.63-4.7,3.33-10.15,6.7-16.02,6.7Zm51.38-2.46c-3.79-1.56-7.8-2.35-11.91-2.35s-8.04,.78-11.8,2.31c-1.94-.78-3.68-1.91-5.17-3.36,11.02-4.17,23.02-4.16,34.03,.04-1.49,1.47-3.21,2.6-5.15,3.37Zm10.41-12.78h0c-.09,.32-.19,.64-.3,.95-7.01-2.9-14.4-4.37-22-4.37h-.03c-7.59,0-14.98,1.46-21.98,4.35-.63-1.87-1.11-3.93-1.44-6.15,14.93-6.13,31.94-6.13,46.87,.01-.27,1.86-.65,3.61-1.13,5.21Zm19.44,15.09h0c-.75,.12-1.53,.17-2.3,.17-5.32,0-10.26-2.65-15.97-6.67,1.33-2.13,2.4-4.58,3.21-7.3,1.84-6.19,2.32-14.08,1.35-22.21-.23-1.9-.63-3.91-1.18-5.9,11.35,5,23,16.1,24.33,28.64,.73,6.95-3.06,12.28-9.45,13.26Z"/></g><g><path d="M110.63,100.78c.96-.61,1.64-1.3,2.03-2.09,.4-.78,.6-1.84,.6-3.17,0-2.22-.62-3.83-1.86-4.82-1.24-.99-3.1-1.49-5.57-1.49h-9.36v23.83h9.5c2.45,0,4.36-.56,5.71-1.68,1.35-1.12,2.03-2.84,2.03-5.15,0-1.5-.25-2.66-.75-3.5-.5-.84-1.28-1.48-2.33-1.93Zm-9.32-7.43h4.28c1.85,0,2.77,.95,2.77,2.84s-.91,2.84-2.73,2.84h-4.31v-5.68Zm6.75,14.93c-.5,.42-1.28,.63-2.33,.63h-4.42v-5.82h4.42c2.06,0,3.08,.96,3.08,2.87,0,1.12-.25,1.89-.75,2.31Z"/><polygon points="122.48 113.04 137.9 113.04 137.9 108.84 127.31 108.84 127.31 103.12 135.79 103.12 135.79 98.99 127.31 98.99 127.31 93.42 137.9 93.42 137.9 89.21 122.48 89.21 122.48 113.04"/><polygon points="146.55 113.04 161.97 113.04 161.97 108.84 151.39 108.84 151.39 103.12 159.87 103.12 159.87 98.99 151.39 98.99 151.39 93.42 161.97 93.42 161.97 89.21 146.55 89.21 146.55 113.04"/><polygon points="169.47 93.42 179.42 93.42 179.42 94.05 169.47 108.87 169.47 113.04 185.24 113.04 185.24 108.84 175.29 108.84 175.29 108.21 185.24 93.42 185.24 89.21 169.47 89.21 169.47 93.42"/><polygon points="208.55 93.42 208.55 89.21 192.78 89.21 192.78 93.42 202.73 93.42 202.73 94.05 192.78 108.87 192.78 113.04 208.55 113.04 208.55 108.84 198.59 108.84 198.59 108.21 208.55 93.42"/></g></g><g><path d="M13.47,204.05h5.89v5.74c-.93,.45-2.19,.68-3.77,.68-2.64,0-4.73-.83-6.29-2.48s-2.33-3.99-2.33-7.01,.86-5.36,2.59-7.15c1.73-1.78,3.97-2.68,6.72-2.68,3.28,0,6.06,.66,8.33,1.97v-6.21c-2.38-.86-5.13-1.29-8.24-1.29-4.95,0-8.91,1.46-11.89,4.37s-4.47,6.68-4.47,11.3,1.36,8.2,4.09,10.82,6.46,3.93,11.19,3.93c4.27,0,7.83-.83,10.71-2.48v-14.79H13.47v5.29Z"/><path d="M48.8,185.61c-4.44,0-8.01,1.44-10.71,4.31s-4.04,6.63-4.04,11.28c0,4.4,1.33,7.97,3.98,10.71,2.65,2.74,6.08,4.11,10.29,4.11s7.82-1.42,10.51-4.25,4.03-6.56,4.03-11.18-1.3-8.12-3.89-10.87-5.98-4.12-10.18-4.12Zm5.09,22.22c-1.34,1.65-3.15,2.47-5.43,2.47s-4.01-.85-5.37-2.54-2.05-4-2.05-6.91,.68-5.18,2.05-6.92c1.37-1.74,3.21-2.62,5.54-2.62s4.03,.85,5.33,2.54,1.95,4.07,1.95,7.12-.67,5.21-2.01,6.86Z"/><path d="M100.12,190c-2.91,2.93-4.36,6.74-4.36,11.44,0,4.42,1.29,7.95,3.88,10.6s6.13,3.98,10.64,3.98c3.46,0,6.26-.52,8.41-1.56v-6.05c-2.15,1.26-4.51,1.89-7.1,1.89s-4.86-.84-6.46-2.53c-1.6-1.69-2.4-3.95-2.4-6.8s.85-5.32,2.54-7.05,3.92-2.6,6.69-2.6c2.52,0,4.76,.59,6.73,1.76v-6.38c-1.97-.72-4.39-1.09-7.26-1.09-4.63,0-8.4,1.46-11.31,4.39Z"/><polygon points="153.46 215.51 153.46 186.1 146.82 186.1 146.82 197.83 134.64 197.83 134.64 186.1 128.01 186.1 128.01 215.51 134.64 215.51 134.64 203.53 146.82 203.53 146.82 215.51 153.46 215.51"/><path d="M171.94,186.1l-10.71,29.41h7.18l2.07-6.54h10.46l2.09,6.54h7.22l-10.46-29.41h-7.85Zm-.04,17.78l3.2-9.97c.27-.85,.44-1.7,.51-2.56h.16c.1,1.03,.26,1.91,.49,2.65l3.16,9.88h-7.53Z"/><path d="M216.17,203.49c-.41,1.2-.8,2.62-1.17,4.25h-.12c-.22-1.41-.57-2.81-1.05-4.2l-6.01-17.43h-9.7v29.41h5.97v-16.26c0-2.19-.09-4.73-.27-7.63h.18c.42,2.2,.73,3.57,.92,4.1l7.01,19.79h5.41l6.89-20c.27-.79,.58-2.09,.92-3.9h.16c-.16,2.3-.25,4.4-.25,6.3v17.6h6.54v-29.41h-9.45l-6.01,17.39Z"/><path d="M255.42,185.61c-4.44,0-8.01,1.44-10.71,4.31s-4.04,6.63-4.04,11.28c0,4.4,1.33,7.97,3.98,10.71,2.65,2.74,6.08,4.11,10.29,4.11s7.82-1.42,10.51-4.25,4.03-6.56,4.03-11.18-1.29-8.12-3.89-10.87-5.99-4.12-10.18-4.12Zm5.09,22.22c-1.34,1.65-3.15,2.47-5.43,2.47s-4.01-.85-5.37-2.54-2.05-4-2.05-6.91,.68-5.18,2.05-6.92c1.37-1.74,3.21-2.62,5.54-2.62s4.03,.85,5.33,2.54,1.95,4.07,1.95,7.12-.67,5.21-2.01,6.86Z"/><path d="M298.77,186.1v16.26c0,2.01,.05,3.36,.16,4.04h-.08c-.45-.79-.94-1.59-1.48-2.4l-11.67-17.9h-7.14v29.41h6.25v-16.16c0-2.13-.05-3.72-.16-4.76h.08c.27,.55,.77,1.36,1.48,2.44l12.12,18.48h6.69v-29.41h-6.26Z"/><path d="M81.6,167.15c1.32-.8,2.21-2.24,2.21-3.89h-8.98v.16c0,1.63,.89,3.04,2.21,3.8v6.95h-11.32v4.57h7.34c-.82,1.21-1.3,2.67-1.3,4.23,0,1.38,.38,2.67,1.02,3.78l-2.31,2.85c-1.59,1.96-1.29,4.84,.67,6.43l4.75-5.86v21.96l3.34,2.95,3.3-2.92v-22l4.75,5.86h0c1.96-1.59,2.26-4.47,.67-6.43l-2.19-2.7c.7-1.15,1.11-2.49,1.11-3.92,0-1.57-.48-3.02-1.3-4.23h7.34v-4.57h-11.32v-7.01Zm1.78,15.81c0,2.24-1.82,4.06-4.06,4.06s-4.06-1.82-4.06-4.06,1.82-4.06,4.06-4.06,4.06,1.82,4.06,4.06Z"/><polygon points="100.39 230.54 104.57 230.54 104.57 242.55 107.89 242.55 107.89 230.54 112.08 230.54 112.08 227.84 100.39 227.84 100.39 230.54"/><path d="M126.87,227.84l-5.35,14.7h3.59l1.04-3.27h5.23l1.05,3.27h3.61l-5.23-14.7h-3.93Zm-.02,8.89l1.6-4.98c.14-.42,.22-.85,.26-1.28h.08c.05,.51,.13,.95,.25,1.32l1.58,4.94h-3.76Z"/><polygon points="151.67 227.84 148.36 227.84 148.36 242.55 157.12 242.55 157.12 239.86 151.67 239.86 151.67 227.84"/><polygon points="172.91 236.5 177.72 236.5 177.72 233.81 172.91 233.81 172.91 230.54 178.08 230.54 178.08 227.84 169.6 227.84 169.6 242.55 178.41 242.55 178.41 239.86 172.91 239.86 172.91 236.5"/><path d="M199.59,235.66c-.33-.35-.74-.66-1.21-.94-.47-.28-1-.54-1.58-.78-.43-.18-.82-.35-1.16-.52-.34-.17-.63-.34-.87-.51-.24-.17-.42-.36-.55-.55-.13-.2-.2-.42-.2-.66,0-.22,.06-.43,.17-.61,.12-.18,.28-.34,.49-.47s.47-.23,.78-.3c.31-.07,.65-.11,1.03-.11,.27,0,.56,.02,.87,.06,.3,.04,.61,.1,.92,.19,.31,.09,.61,.19,.9,.32,.29,.13,.56,.28,.81,.45v-3.07c-.5-.19-1.04-.33-1.64-.42-.59-.09-1.27-.14-2.04-.14s-1.52,.08-2.21,.25c-.7,.17-1.31,.43-1.84,.79-.53,.36-.95,.81-1.26,1.36-.31,.55-.46,1.21-.46,1.97,0,.98,.28,1.81,.85,2.5,.56,.69,1.42,1.28,2.57,1.75,.45,.18,.87,.37,1.26,.54s.73,.36,1.01,.55c.28,.19,.51,.4,.67,.63,.16,.22,.25,.48,.25,.77,0,.21-.05,.41-.15,.59-.1,.18-.26,.34-.47,.47-.21,.13-.47,.24-.78,.31-.31,.08-.67,.11-1.09,.11-.71,0-1.42-.12-2.11-.38-.7-.25-1.34-.62-1.94-1.12v3.28c.53,.27,1.16,.48,1.89,.62,.73,.14,1.5,.21,2.3,.21s1.53-.08,2.24-.22c.71-.15,1.33-.4,1.86-.74,.53-.34,.96-.8,1.27-1.35,.31-.56,.47-1.25,.47-2.07,0-.59-.09-1.12-.27-1.56-.18-.45-.43-.85-.77-1.19Z"/></g></g></g></svg>